<svg width="176" height="51" viewBox="0 0 176 51" fill="none" xmlns="http://www.w3.org/2000/svg">
<path d="M8.63629 20.1056L17.7578 14.9112L26.8794 20.1056V30.4944L17.7578 35.6888L8.63629 30.4944V20.1056Z" stroke="#165C90" stroke-width="2"/>
<path d="M11.3703 21.6626L17.7578 18.0251L24.1454 21.6626V28.9375L17.7578 32.575L11.3703 28.9375V21.6626Z" stroke="#165C90" stroke-width="2"/>
<path d="M5.90234 18.5486L17.7579 11.7974L29.6134 18.5486V32.0513L17.7579 38.8027L5.90234 32.0513V18.5486Z" stroke="#165C90" stroke-width="2"/>
<path d="M3.16833 16.9917L17.7578 8.6835L32.3474 16.9917V33.6082L17.7578 41.9165L3.16833 33.6082V16.9917Z" stroke="#165C90" stroke-width="2"/>
<path d="M53.0732 14.5992V17.6249H41.8666V23.3569H51.5933V26.3978H41.8666V35.8092H38.2287V14.5992H53.0732ZM74.0318 25.151C74.0318 26.7931 73.8108 28.3034 73.3689 29.6819C72.927 31.0503 72.2796 32.2311 71.4266 33.2245C70.584 34.2077 69.546 34.973 68.3129 35.5204C67.0797 36.0677 65.6666 36.3414 64.0738 36.3414C62.4809 36.3414 61.0679 36.0677 59.8347 35.5204C58.6118 34.9629 57.5739 34.1925 56.7209 33.2093C55.8783 32.2159 55.236 31.0351 54.7941 29.6667C54.3625 28.2881 54.1467 26.7778 54.1467 25.1358C54.1467 23.4938 54.3625 21.9936 54.7941 20.6353C55.236 19.2771 55.8783 18.1114 56.7209 17.1383C57.5739 16.1652 58.6118 15.4101 59.8347 14.8729C61.0679 14.3357 62.4809 14.067 64.0738 14.067C65.6666 14.067 67.0797 14.3408 68.3129 14.8881C69.546 15.4253 70.584 16.1805 71.4266 17.1536C72.2796 18.1266 72.927 19.2923 73.3689 20.6505C73.8108 22.0088 74.0318 23.5089 74.0318 25.151ZM70.3938 25.1358C70.3938 23.8485 70.2294 22.7031 69.9006 21.6996C69.5717 20.6961 69.1195 19.8548 68.544 19.1757C67.9789 18.4865 67.3108 17.9644 66.5402 17.6097C65.7796 17.2447 64.9576 17.0623 64.0738 17.0623C63.1797 17.0623 62.3473 17.2447 61.5766 17.6097C60.8161 17.9644 60.1533 18.4865 59.5881 19.1757C59.0332 19.8548 58.5913 20.6961 58.2624 21.6996C57.9438 22.7031 57.7845 23.8485 57.7845 25.1358C57.7845 26.4231 57.9438 27.5736 58.2624 28.5872C58.5913 29.6008 59.0332 30.4624 59.5881 31.1719C60.1533 31.8713 60.8161 32.4085 61.5766 32.7836C62.3473 33.1485 63.1797 33.3309 64.0738 33.3309C64.9576 33.3309 65.7796 33.1485 66.5402 32.7836C67.3108 32.4085 67.9789 31.8713 68.544 31.1719C69.1195 30.4624 69.5717 29.6008 69.9006 28.5872C70.2294 27.5736 70.3938 26.4231 70.3938 25.1358ZM80.2386 14.5992L86.2503 31.2327L92.385 14.5992H96.4859V35.8092H92.8475V21.806L87.8998 35.8092H84.8162L79.7761 21.7604V35.8092H76.138V14.5992H80.2386ZM114.947 14.5992V17.6249H103.401V23.3569H114.238V26.3978H103.401V32.738H115.44V35.8092H99.7636V14.5992H114.947ZM121.955 14.5992L131.189 30.731V14.5992H134.826V35.8092H130.726L121.446 19.5254V35.8092H117.809V14.5992H121.955ZM153.874 14.5992V17.6249H147.076V35.8092H143.438V17.6249H136.624V14.5992H153.874ZM166.354 14.5992L174.216 35.8092H170.408L168.096 29.6058H160.357C159.988 30.6297 159.602 31.6635 159.202 32.7075C158.811 33.7516 158.431 34.7855 158.061 35.8092H154.3L162.162 14.5992H166.354ZM164.227 19.0541L161.483 26.5955H166.955L164.227 19.0541Z" fill="#165C90"/>
</svg>
