<svg width="176" height="51" viewBox="0 0 176 51" fill="none" xmlns="http://www.w3.org/2000/svg">
<path d="M8.63672 20.1055L17.7583 14.9111L26.8798 20.1055V30.4943L17.7583 35.6887L8.63672 30.4943V20.1055Z" stroke="#FAFAFA" stroke-width="2"/>
<path d="M11.3691 21.6629L17.7567 18.0254L24.1442 21.6629V28.9379L17.7567 32.5753L11.3691 28.9379V21.6629Z" stroke="#FAFAFA" stroke-width="2"/>
<path d="M5.90234 18.5491L17.7579 11.7979L29.6134 18.5491V32.0518L17.7579 38.8031L5.90234 32.0518V18.5491Z" stroke="#FAFAFA" stroke-width="2"/>
<path d="M3.16797 16.9918L17.7575 8.68359L32.347 16.9918V33.6083L17.7575 41.9166L3.16797 33.6083V16.9918Z" stroke="#FAFAFA" stroke-width="2"/>
<path d="M53.073 14.5995V17.6252H41.8664V23.3572H51.5932V26.3981H41.8664V35.8096H38.2285V14.5995H53.073ZM74.0316 25.1514C74.0316 26.7934 73.8106 28.3037 73.3687 29.6822C72.9268 31.0506 72.2794 32.2315 71.4265 33.2249C70.5838 34.2081 69.5459 34.9734 68.3127 35.5207C67.0795 36.068 65.6664 36.3417 64.0736 36.3417C62.4807 36.3417 61.0677 36.068 59.8345 35.5207C58.6116 34.9632 57.5737 34.1929 56.7207 33.2097C55.8781 32.2163 55.2358 31.0354 54.7939 29.6671C54.3623 28.2885 54.1465 26.7782 54.1465 25.1362C54.1465 23.4941 54.3623 21.9939 54.7939 20.6357C55.2358 19.2774 55.8781 18.1117 56.7207 17.1386C57.5737 16.1656 58.6116 15.4105 59.8345 14.8732C61.0677 14.336 62.4807 14.0674 64.0736 14.0674C65.6664 14.0674 67.0795 14.3411 68.3127 14.8884C69.5459 15.4256 70.5838 16.1808 71.4265 17.1539C72.2794 18.127 72.9268 19.2927 73.3687 20.6508C73.8106 22.0091 74.0316 23.5093 74.0316 25.1514ZM70.3937 25.1362C70.3937 23.8488 70.2293 22.7035 69.9004 21.7C69.5715 20.6965 69.1194 19.8552 68.5438 19.176C67.9787 18.4868 67.3107 17.9648 66.54 17.61C65.7795 17.2451 64.9574 17.0627 64.0736 17.0627C63.1796 17.0627 62.3471 17.2451 61.5764 17.61C60.8159 17.9648 60.1531 18.4868 59.5879 19.176C59.033 19.8552 58.5911 20.6965 58.2622 21.7C57.9436 22.7035 57.7843 23.8488 57.7843 25.1362C57.7843 26.4234 57.9436 27.5739 58.2622 28.5876C58.5911 29.6011 59.033 30.4627 59.5879 31.1723C60.1531 31.8717 60.8159 32.4089 61.5764 32.7839C62.3471 33.1488 63.1796 33.3313 64.0736 33.3313C64.9574 33.3313 65.7795 33.1488 66.54 32.7839C67.3107 32.4089 67.9787 31.8717 68.5438 31.1723C69.1194 30.4627 69.5715 29.6011 69.9004 28.5876C70.2293 27.5739 70.3937 26.4234 70.3937 25.1362ZM80.2385 14.5995L86.2501 31.2331L92.3848 14.5995H96.4857V35.8096H92.8473V21.8064L87.8996 35.8096H84.816L79.776 21.7608V35.8096H76.1378V14.5995H80.2385ZM114.947 14.5995V17.6252H103.401V23.3572H114.238V26.3981H103.401V32.7383H115.44V35.8096H99.7634V14.5995H114.947ZM121.955 14.5995L131.188 30.7314V14.5995H134.826V35.8096H130.726L121.446 19.5257V35.8096H117.809V14.5995H121.955ZM153.874 14.5995V17.6252H147.076V35.8096H143.437V17.6252H136.624V14.5995H153.874ZM166.354 14.5995L174.215 35.8096H170.408L168.096 29.6062H160.357C159.988 30.63 159.602 31.6639 159.202 32.7079C158.811 33.752 158.431 34.7858 158.06 35.8096H154.3L162.161 14.5995H166.354ZM164.227 19.0544L161.483 26.5958H166.955L164.227 19.0544Z" fill="#FAFAFA"/>
</svg>
