<svg xmlns="http://www.w3.org/2000/svg" viewBox="0 0 500 500"><!--7 Rising--><g id="freepik--Arrow--inject-1--inject-230"><g id="freepik--arrow--inject-1--inject-230"><path d="M281,163.42V312c0,28-11.71,51.79-39,67.56l-78,45v9l85.8-49.54c31.21-18,39-44,39-72.06V168.75Z" style="fill:#3856DD"></path><path d="M281,163.42V312c0,28-11.71,51.79-39,67.56l-78,45v9l85.8-49.54c31.21-18,39-44,39-72.06V168.75Z" style="opacity:0.15"></path><polygon points="101.58 388.61 163.99 424.63 163.99 433.64 101.58 397.61 101.58 388.61" style="fill:#3856DD"></polygon><polygon points="101.58 388.61 163.99 424.63 163.99 433.64 101.58 397.61 101.58 388.61" style="opacity:0.07"></polygon><path d="M218.59,127.39V283.8a64.51,64.51,0,0,1-32.26,55.87L101.58,388.6l62.41,36,84.75-48.93A64.51,64.51,0,0,0,281,319.83V163.42Z" style="fill:#3856DD"></path><polygon points="191.29 116.13 312.2 185.94 249.79 55.33 191.29 116.13" style="fill:#3856DD"></polygon><polygon points="312.2 185.94 320 181.43 257.59 50.83 249.79 55.33 312.2 185.94" style="fill:#3856DD"></polygon><polygon points="312.2 185.94 320 181.43 257.59 50.83 249.79 55.33 312.2 185.94" style="fill:#fff;opacity:0.5"></polygon><path d="M256.84,370.15l-62.41-36a62.63,62.63,0,0,1-8.1,5.55L101.58,388.6l62.41,36,84.75-48.93A64,64,0,0,0,256.84,370.15Z" style="fill:#fff;opacity:0.35000000000000003"></path><path d="M216.77,299a64.55,64.55,0,0,1-22.34,35.1l62.41,36A64.49,64.49,0,0,0,280,331Z" style="fill:#fff;opacity:0.2"></path></g></g></svg>